<svg width="16" height="16" viewBox="0 0 16 16" fill="none" xmlns="http://www.w3.org/2000/svg">
<path fill-rule="evenodd" clip-rule="evenodd" d="M5.93934 8.64642L3.6921 7.89734L3.69209 7.89734L3.69209 7.89734C1.33888 7.11293 0.162277 6.72073 0.162277 5.99997C0.162277 5.27921 1.33888 4.88701 3.6921 4.10261L12.2053 1.26488C13.8611 0.712955 14.689 0.43699 15.126 0.874006C15.563 1.31102 15.287 2.13892 14.7351 3.79471L11.8974 12.3079L11.8974 12.3079L11.8974 12.3079C11.113 14.6611 10.7208 15.8377 10 15.8377C9.27924 15.8377 8.88704 14.6611 8.10263 12.3079L7.35355 10.0606L11.7071 5.70708C12.0976 5.31656 12.0976 4.68339 11.7071 4.29287C11.3166 3.90234 10.6834 3.90234 10.2929 4.29287L5.93934 8.64642Z" fill="#292c32"/>
</svg>
